<?xml version="1.0" encoding="UTF-8"?>
<svg width="1415px" height="913px" viewBox="0 0 1415 913" version="1.1" xmlns="http://www.w3.org/2000/svg" xmlns:xlink="http://www.w3.org/1999/xlink">
    <!-- Generator: Sketch 53.2 (72643) - https://sketchapp.com -->
    <title>android-app-icon-purple copy 2</title>
    <desc>Created with Sketch.</desc>
    <defs>
        <path d="M16.1182368,5.84943863 C16.900913,5.72706544 17.6774744,5.67811616 18.4295773,5.67811616 C27.2346839,5.67811616 34.3766037,12.818592 34.3766037,21.6355806 L34.3766037,274.489191 C34.3766037,284.058775 25.9444912,291.664269 16.1182368,290.28757 C8.03465978,289.137262 2.48866555,281.427751 2.48866555,273.265459 L2.48866555,22.8654311 C2.48866555,14.7031392 8.03465978,6.97527201 16.1182368,5.84943863 Z" id="path-1"></path>
        <path d="M14.687407,5.84943863 C15.4823125,5.72706544 16.2527593,5.67811616 17.0109768,5.67811616 C25.8160834,5.67811616 32.9580032,12.818592 32.9580032,21.6355806 L32.9580032,489.358162 C32.9580032,498.921627 24.519776,506.53324 14.687407,505.132067 C6.60994461,504.000115 1.0761797,496.290604 1.0761797,488.116074 L1.0761797,22.8654311 C1.0761797,14.7031392 6.60994461,6.97527201 14.687407,5.84943863 Z" id="path-3"></path>
        <path d="M15.6351789,3.04097385 C16.4239697,2.92471932 17.2005312,2.8818887 17.9587487,2.8818887 C26.7577406,2.8818887 33.8935458,10.0223645 33.8935458,18.8271158 L33.8935458,202.680601 C33.8935458,212.256304 25.4736626,219.861798 15.6351789,218.472862 C7.5577165,217.334791 2.00560762,209.62528 2.00560762,201.444632 L2.00560762,20.0569664 C2.00560762,11.8885557 7.5577165,4.17292589 15.6351789,3.04097385 Z" id="path-5"></path>
        <path d="M15.8736505,3.11439777 C16.6624413,3.01038055 17.4328882,2.95531261 18.1911057,2.95531261 C27.0023269,2.95531261 34.1442467,10.1080258 34.1442467,18.9188957 L34.1442467,300.579156 C34.1442467,310.154858 25.7121342,317.760352 15.8736505,316.371416 C7.79007348,315.233346 2.25630857,307.523834 2.25630857,299.343186 L2.25630857,20.1303903 C2.25630857,11.9803356 7.79007348,4.26470578 15.8736505,3.11439777 Z" id="path-7"></path>
        <path d="M15.3967072,3.39585611 C16.185498,3.27960158 16.9559449,3.23677096 17.720277,3.23677096 C26.5314983,3.23677096 33.6611888,10.3833654 33.6611888,19.1942353 L33.6611888,203.151738 C33.6611888,212.72744 25.2290763,220.332934 15.3967072,218.950117 C7.31924487,217.799809 1.76713598,210.096417 1.76713598,201.934125 L1.76713598,20.40573 C1.76713598,12.2556753 7.31924487,4.53392681 15.3967072,3.39585611 Z" id="path-9"></path>
        <path d="M15.1643503,5.17026741 C15.9531411,5.0662502 16.7113586,5.01118226 17.4818054,5.01118226 C26.2807974,5.01118226 33.4227172,12.1516581 33.4227172,20.962528 L33.4227172,508.846093 C33.4227172,518.427914 24.9906047,526.033408 15.1643503,524.638354 C7.08077323,523.500283 1.534779,515.790772 1.534779,507.616243 L1.534779,22.1862599 C1.534779,14.0178493 7.08077323,6.31445677 15.1643503,5.17026741 Z" id="path-11"></path>
        <path d="M14.919764,1.45012234 C15.7146694,1.33998647 16.4851163,1.28491853 17.2494484,1.28491853 C26.0484404,1.28491853 33.1842455,8.43151301 33.1842455,17.2423829 L33.1842455,343.409773 C33.1842455,352.985476 24.770477,360.59097 14.919764,359.202034 C6.83007228,358.063963 1.30242202,350.354452 1.30242202,342.173804 L1.30242202,18.4661148 C1.30242202,10.3099415 6.83007228,2.5943117 14.919764,1.45012234 Z" id="path-13"></path>
        <path d="M14.7162835,0.849054008 C15.4989596,0.726680815 16.2755211,0.677731537 17.0337386,0.677731537 C25.8327306,0.689968857 32.9746504,7.82432602 32.9746504,16.6351959 L32.9746504,269.501044 C32.9746504,279.070627 24.5425379,286.670003 14.7162835,285.287186 C6.63270645,284.149115 1.08671222,276.439604 1.08671222,268.277312 L1.08671222,17.8772838 C1.08671222,9.70887319 6.63270645,1.9871247 14.7162835,0.849054008 Z" id="path-15"></path>
        <path d="M14.4856233,0.849054008 C15.2744141,0.726680815 16.0448609,0.677731537 16.8091931,0.677731537 C25.6142997,0.689968857 32.7562195,7.82432602 32.7562195,16.6351959 L32.7562195,484.357778 C32.7562195,493.927361 24.324107,501.532855 14.4856233,500.137801 C6.40204626,499.005849 0.862166689,491.290219 0.862166689,483.121808 L0.862166689,17.8772838 C0.862166689,9.70887319 6.40204626,1.9871247 14.4856233,0.849054008 Z" id="path-17"></path>
        <path d="M14.2332256,0.44618226 C15.0159017,0.336046386 15.7924632,0.287097109 16.5567954,0.287097109 C25.361902,0.287097109 32.4977071,7.43369159 32.4977071,16.2323242 L32.4977071,200.08581 C32.4977071,209.661512 24.0717093,217.260887 14.2332256,215.871952 C6.15576318,214.739999 0.603654288,207.02437 0.603654288,198.855959 L0.603654288,17.4682934 C0.603654288,9.29988279 6.15576318,1.5781343 14.2332256,0.44618226 Z" id="path-19"></path>
        <path d="M14.4778119,0.525724836 C15.260488,0.415588962 16.0309348,0.360521025 16.7891523,0.360521025 C25.6126029,0.360521025 32.7422934,7.51323417 32.7422934,16.3241041 L32.7422934,297.984364 C32.7422934,307.560066 24.3101809,315.159442 14.4778119,313.770506 C6.39423481,312.638554 0.848240582,304.922924 0.848240582,296.754514 L0.848240582,17.5417173 C0.848240582,9.37942536 6.39423481,1.66991419 14.4778119,0.525724836 Z" id="path-21"></path>
        <path d="M13.9947539,0.794945861 C14.7896594,0.690928647 15.5478769,0.62974205 16.3122091,0.62974205 C25.1234303,0.62974205 32.2653501,7.78857385 32.2653501,16.5994438 L32.2653501,200.556946 C32.2653501,210.12653 23.827123,217.732024 13.9947539,216.343088 C5.91117688,215.205018 0.371297308,207.501625 0.371297308,199.333214 L0.371297308,17.8109384 C0.371297308,9.66088371 5.91117688,1.93913522 13.9947539,0.794945861 Z" id="path-23"></path>
        <path d="M13.7685116,0.176001445 C14.5573024,0.0658655716 15.3216346,0.0107976347 16.0859667,0.0107976347 C24.878844,0.0107976347 32.0207638,7.15739212 32.0207638,15.968262 L32.0207638,503.851827 C32.0207638,513.433648 23.5886513,521.039142 13.7685116,519.644088 C5.6788199,518.499898 0.138940328,510.790387 0.138940328,502.628095 L0.138940328,17.191994 C0.138940328,9.02358331 5.6788199,1.31407214 13.7685116,0.176001445 Z" id="path-25"></path>
        <path d="M14.7179803,0.175041656 C15.5128857,0.0649057819 16.2894472,0.00371918528 17.0476647,0.00371918528 C25.8466567,0.00371918528 32.9824618,7.16255099 32.9824618,15.9611836 L32.9824618,342.134693 C32.9824618,351.710395 24.5625786,359.30977 14.7179803,357.920835 C6.62828858,356.788883 1.10063833,349.073253 1.10063833,340.904842 L1.10063833,17.1910342 C1.10063833,9.02874218 6.62828858,1.31311235 14.7179803,0.175041656 Z" id="path-27"></path>
    </defs>
    <g id="android-app-icon-purple-copy-2" stroke="none" stroke-width="1" fill="none" fill-rule="evenodd" opacity="0.899999976">
        <g id="BG-Copy">
            <g id="BG-Copy-+-En-logo-Mask">
                <g id="En-logo">
                    <g id="Group-17" transform="translate(476.943275, 311.340918)" fill="#FFFFFE">
                        <path d="M16.1194597,5.84515557 C8.03588271,6.97710761 2.48988848,14.7049748 2.48988848,22.8672667 L2.48988848,273.273413 C2.48988848,281.429587 8.03588271,289.139098 16.1194597,290.283287 C25.9395995,291.666104 34.371712,284.06061 34.371712,274.491027 L34.371712,21.6374161 C34.371712,12.8204276 27.2359068,5.67995176 18.4308002,5.67995176 C17.6786974,5.67995176 16.9021359,5.72890104 16.1194597,5.84515557" id="Fill-15"></path>
                    </g>
                    <g id="Group-20" transform="translate(476.943275, 311.340918)">
                        <mask id="mask-2" fill="white">
                            <use xlink:href="#path-1"></use>
                        </mask>
                        <g id="Clip-19"></g>
                        <polygon id="Fill-18" fill="#FFFFFE" mask="url(#mask-2)" points="-140.413323 148.671804 18.4332461 307.622345 177.2737 148.671804 18.4332461 -10.2787364"></polygon>
                    </g>
                    <g id="Group-23" transform="translate(0.000000, 311.340918)" fill="#FFFFFE">
                        <path d="M14.6861841,5.84515557 C6.60872168,6.97710761 1.06884211,14.7049748 1.06884211,22.8672667 L1.06884211,488.11791 C1.06884211,496.28632 6.60872168,504.00195 14.6861841,505.133902 C24.5185531,506.535075 32.9567803,498.917344 32.9567803,489.353879 L32.9567803,21.6374161 C32.9567803,12.8204276 25.8148605,5.67995176 17.0097539,5.67995176 C16.2515363,5.67995176 15.4810895,5.72890104 14.6861841,5.84515557" id="Fill-21"></path>
                    </g>
                    <g id="Group-26" transform="translate(0.000000, 311.340918)">
                        <mask id="mask-4" fill="white">
                            <use xlink:href="#path-3"></use>
                        </mask>
                        <g id="Clip-25"></g>
                        <polygon id="Fill-24" fill="#FFFFFE" mask="url(#mask-4)" points="1.07006504 506.53324 32.9580032 506.53324 32.9580032 5.67811616 1.07006504 5.67811616"></polygon>
                    </g>
                    <g id="Group-29" transform="translate(317.962183, 286.866280)" fill="#FFFFFE">
                        <path d="M15.6357904,3.04280945 C7.55832797,4.17476148 2.00621908,11.8903913 2.00621908,20.058802 L2.00621908,201.446468 C2.00621908,209.620997 7.55832797,217.330508 15.6357904,218.468579 C25.4742741,219.857514 33.8941572,212.258139 33.8941572,202.676318 L33.8941572,18.8289514 C33.8941572,10.0242001 26.7583521,2.8837243 17.9593601,2.8837243 C17.2011426,2.8837243 16.4245812,2.92655491 15.6357904,3.04280945" id="Fill-27"></path>
                    </g>
                    <g id="Group-32" transform="translate(317.962183, 286.866280)">
                        <mask id="mask-6" fill="white">
                            <use xlink:href="#path-5"></use>
                        </mask>
                        <g id="Clip-31"></g>
                        <polygon id="Fill-30" fill="#FFFFFE" mask="url(#mask-6)" points="7.74727088 -9.37990526 -81.324943 180.769681 28.1518825 232.123591 117.224096 41.9678866"></polygon>
                    </g>
                    <g id="Group-35" transform="translate(397.452729, 188.967725)" fill="#FFFFFE">
                        <path d="M15.874262,3.1174571 C7.79068495,4.26164645 2.25080538,11.9772763 2.25080538,20.1334496 L2.25080538,299.346246 C2.25080538,307.520775 7.79068495,315.230286 15.874262,316.368357 C25.706631,317.757293 34.1448582,310.157917 34.1448582,300.576096 L34.1448582,18.921955 C34.1448582,10.1110851 27.0029384,2.95225329 18.1917171,2.95225329 C17.4334996,2.95225329 16.6630528,3.00732122 15.874262,3.1174571" id="Fill-33"></path>
                    </g>
                    <g id="Group-38" transform="translate(397.452729, 188.967725)">
                        <mask id="mask-8" fill="white">
                            <use xlink:href="#path-7"></use>
                        </mask>
                        <g id="Clip-37"></g>
                        <polygon id="Fill-36" fill="#FFFFFE" mask="url(#mask-8)" points="-155.049367 160.355997 18.1972203 333.715981 191.443807 160.355997 18.1972203 -13.0039874"></polygon>
                    </g>
                    <g id="Group-41" transform="translate(238.471637, 445.951431)" fill="#FFFFFE">
                        <path d="M15.3967072,3.39218491 C7.31924487,4.53637427 1.76713598,12.2520041 1.76713598,20.4081774 L1.76713598,201.930454 C1.76713598,210.098864 7.31924487,217.802257 15.3967072,218.946446 C25.2290763,220.335382 33.6611888,212.723769 33.6611888,203.148067 L33.6611888,19.1966828 C33.6611888,10.3858129 26.5253837,3.23309976 17.720277,3.23309976 C16.9559449,3.23309976 16.185498,3.27593038 15.3967072,3.39218491" id="Fill-39"></path>
                    </g>
                    <g id="Group-44" transform="translate(238.471637, 445.951431)">
                        <mask id="mask-10" fill="white">
                            <use xlink:href="#path-9"></use>
                        </mask>
                        <g id="Clip-43"></g>
                        <polygon id="Fill-42" fill="#FFFFFE" mask="url(#mask-10)" points="5.21580273 -6.66995089 -65.5430123 196.903975 30.2247514 230.232314 100.983566 26.6645069"></polygon>
                    </g>
                    <g id="Group-47" transform="translate(158.981092, 60.475872)" fill="#FFFFFE">
                        <path d="M15.1637388,5.16965555 C7.08016176,6.3138449 1.53416753,14.0172374 1.53416753,22.1856481 L1.53416753,507.621749 C1.53416753,515.79016 7.08016176,523.499671 15.1637388,524.637742 C24.9899932,526.032796 33.4221057,518.427302 33.4221057,508.845481 L33.4221057,20.9619161 C33.4221057,12.1510462 26.2801859,5.01057039 17.4873086,5.01057039 C16.7168618,5.01057039 15.9525296,5.05951967 15.1637388,5.16965555" id="Fill-45"></path>
                    </g>
                    <g id="Group-50" transform="translate(158.981092, 60.475872)">
                        <mask id="mask-12" fill="white">
                            <use xlink:href="#path-11"></use>
                        </mask>
                        <g id="Clip-49"></g>
                        <polygon id="Fill-48" fill="#FFFFFE" mask="url(#mask-12)" points="12.0886776 -10.0015611 -243.448968 353.667094 22.8749332 541.051046 278.412579 177.382391"></polygon>
                    </g>
                    <g id="Group-53" transform="translate(79.490546, 146.137107)" fill="#FFFFFE">
                        <path d="M14.9252672,1.44706301 C6.83557547,2.59125237 1.30181055,10.3068822 1.30181055,18.4630555 L1.30181055,342.176863 C1.30181055,350.351393 6.83557547,358.060904 14.9252672,359.198975 C24.7637509,360.58791 33.1836341,352.988535 33.1836341,343.406714 L33.1836341,17.2393236 C33.1836341,8.43457234 26.0478289,1.2818592 17.248837,1.2818592 C16.4845048,1.2818592 15.714058,1.33692714 14.9252672,1.44706301" id="Fill-51"></path>
                    </g>
                    <g id="Group-56" transform="translate(79.490546, 146.137107)">
                        <mask id="mask-14" fill="white">
                            <use xlink:href="#path-13"></use>
                        </mask>
                        <g id="Clip-55"></g>
                        <polygon id="Fill-54" fill="#FFFFFE" mask="url(#mask-14)" points="1.30242202 360.584851 33.1842455 360.584851 33.1842455 1.27879987 1.30242202 1.27879987"></polygon>
                    </g>
                    <g id="Group-59" transform="translate(476.943275, 311.340918)" fill="#FFFFFE">
                        <path d="M15.9164531,4.44704184 C7.83287609,5.58511254 2.28688185,13.306861 2.28688185,21.4752717 L2.28688185,271.8753 C2.28688185,280.037592 7.83287609,287.747103 15.9164531,288.885173 C25.7427075,290.26799 34.17482,282.668615 34.17482,273.099031 L34.17482,20.2393024 C34.17482,11.4284325 27.0329002,4.28795669 18.2339083,4.28183803 C17.4756908,4.28183803 16.6991293,4.33078731 15.9164531,4.44704184" id="Fill-57"></path>
                    </g>
                    <g id="Group-62" transform="translate(478.143444, 314.940130)">
                        <mask id="mask-16" fill="white">
                            <use xlink:href="#path-15"></use>
                        </mask>
                        <g id="Clip-61"></g>
                        <polygon id="Fill-60" fill="#FFFFFF" mask="url(#mask-16)" points="-141.816499 143.673867 17.0361845 302.624408 175.876639 143.673867 17.0361845 -15.2766735"></polygon>
                    </g>
                    <g id="Group-65" transform="translate(0.000000, 311.340918)" fill="#FFFFFE">
                        <path d="M14.4831774,4.44704184 C6.3996004,5.58511254 0.859720826,13.306861 0.859720826,21.4752717 L0.859720826,486.725915 C0.859720826,494.888207 6.3996004,502.603837 14.4831774,503.741907 C24.3216611,505.136962 32.7537736,497.525349 32.7537736,487.955765 L32.7537736,20.2393024 C32.7537736,11.4284325 25.6118538,4.28795669 16.8128619,4.28183803 C16.0424151,4.28183803 15.2780829,4.33078731 14.4831774,4.44704184" id="Fill-63"></path>
                    </g>
                    <g id="Group-68" transform="translate(0.000000, 314.940130)">
                        <mask id="mask-18" fill="white">
                            <use xlink:href="#path-17"></use>
                        </mask>
                        <g id="Clip-67"></g>
                        <polygon id="Fill-66" fill="#FFFFFF" mask="url(#mask-18)" points="0.862166689 501.532855 32.7562195 501.532855 32.7562195 0.677731537 0.862166689 0.677731537"></polygon>
                    </g>
                    <g id="Group-71" transform="translate(317.962183, 286.866280)" fill="#FFFFFE">
                        <path d="M15.4327837,1.64775505 C7.361436,2.77970708 1.80321246,10.4953369 1.80321246,18.6698662 L1.80321246,200.057532 C1.80321246,208.225942 7.361436,215.935454 15.4327837,217.073524 C25.2712674,218.46246 33.6972653,210.863085 33.6972653,201.281264 L33.6972653,17.433897 C33.6972653,8.62914572 26.5553455,1.48866989 17.7624682,1.48866989 C16.998136,1.48866989 16.2215745,1.53150051 15.4327837,1.64775505" id="Fill-69"></path>
                    </g>
                    <g id="Group-74" transform="translate(319.162353, 288.066017)">
                        <mask id="mask-20" fill="white">
                            <use xlink:href="#path-19"></use>
                        </mask>
                        <g id="Clip-73"></g>
                        <polygon id="Fill-72" fill="#FFFFFF" mask="url(#mask-20)" points="6.35020928 -11.9746968 -82.7220046 178.174889 26.7548209 229.5288 115.827035 39.373095"></polygon>
                    </g>
                    <g id="Group-77" transform="translate(397.452729, 188.967725)" fill="#FFFFFE">
                        <path d="M15.67737,1.72240269 C7.59379298,2.86659205 2.04779875,10.5822219 2.04779875,18.7383952 L2.04779875,297.95731 C2.04779875,306.125721 7.59379298,313.835232 15.67737,314.973303 C25.5097391,316.362238 33.9418516,308.762863 33.9418516,299.181042 L33.9418516,17.5269006 C33.9418516,8.71603068 26.8060464,1.56331754 17.9887105,1.56331754 C17.230493,1.56331754 16.4600462,1.61226682 15.67737,1.72240269" id="Fill-75"></path>
                    </g>
                    <g id="Group-80" transform="translate(398.652898, 190.167462)">
                        <mask id="mask-22" fill="white">
                            <use xlink:href="#path-21"></use>
                        </mask>
                        <g id="Clip-79"></g>
                        <polygon id="Fill-78" fill="#FFFFFF" mask="url(#mask-22)" points="-156.452543 157.761205 16.7940441 331.121189 190.040631 157.761205 16.7940441 -15.598779"></polygon>
                    </g>
                    <g id="Group-86" transform="translate(239.671807, 447.151168)">
                        <mask id="mask-24" fill="white">
                            <use xlink:href="#path-23"></use>
                        </mask>
                        <g id="Clip-85"></g>
                        <polygon id="Fill-84" fill="#FFFFFF" mask="url(#mask-24)" points="3.81262647 -9.26780181 -66.9461886 194.306124 28.8215751 227.634463 99.5803901 24.066656"></polygon>
                    </g>
                    <g id="Group-89" transform="translate(158.981092, 60.475872)" fill="#FFFFFE">
                        <path d="M14.9668468,3.77460114 C6.8832698,4.9187905 1.33727557,12.622183 1.33727557,20.7905937 L1.33727557,506.226695 C1.33727557,514.395106 6.8832698,522.098498 14.9668468,523.242687 C24.7869866,524.637742 33.2190991,517.026129 33.2190991,507.450427 L33.2190991,19.5668617 C33.2190991,10.7559918 26.0771793,3.60939733 17.284302,3.60939733 C16.5199698,3.60939733 15.7556376,3.66446527 14.9668468,3.77460114" id="Fill-87"></path>
                    </g>
                    <g id="Group-92" transform="translate(160.181261, 64.075084)">
                        <mask id="mask-26" fill="white">
                            <use xlink:href="#path-25"></use>
                        </mask>
                        <g id="Clip-91"></g>
                        <polygon id="Fill-90" fill="#FFFFFF" mask="url(#mask-26)" points="10.6855014 -14.9988864 -244.852145 348.669769 21.4778716 536.053721 277.009403 172.385066"></polygon>
                    </g>
                    <g id="Group-95" transform="translate(79.490546, 140.018448)" fill="#FFFFFE">
                        <path d="M14.7161459,6.17066827 C6.63256884,7.31485762 1.09880393,15.0304875 1.09880393,23.1866608 L1.09880393,346.906587 C1.09880393,355.074998 6.63256884,362.784509 14.7161459,363.92258 C24.5607442,365.311516 32.9806274,357.71214 32.9806274,348.130319 L32.9806274,21.9629288 C32.9806274,13.1581776 25.8448223,6.00546445 17.0458303,6.00546445 C16.2876128,6.00546445 15.5110513,6.06053239 14.7161459,6.17066827" id="Fill-93"></path>
                    </g>
                    <g id="Group-98" transform="translate(79.490546, 146.017134)">
                        <mask id="mask-28" fill="white">
                            <use xlink:href="#path-27"></use>
                        </mask>
                        <g id="Clip-97"></g>
                        <polygon id="Fill-96" fill="#FFFFFF" mask="url(#mask-28)" points="1.10063833 359.30977 32.9824618 359.30977 32.9824618 0.00371918528 1.10063833 0.00371918528"></polygon>
                    </g>
                    <path d="M176.264782,0.491592313 C167.575854,0.491592313 160.537883,7.53416958 160.537883,16.228785 C160.537883,24.9172817 167.575854,31.9720963 176.264782,31.9720963 C184.947595,31.9720963 191.985566,24.9172817 191.985566,16.228785 C191.985566,7.53416958 184.947595,0.491592313 176.264782,0.491592313" id="Fill-99" fill="#FFFFFF"></path>
                    <path d="M96.5351532,113.899113 C105.224081,113.899113 112.262052,106.850418 112.262052,98.1619208 C112.262052,89.4673055 105.224081,82.4247282 96.5351532,82.4247282 C87.846225,82.4247282 80.8082544,89.4673055 80.8082544,98.1619208 C80.8082544,106.850418 87.846225,113.899113 96.5351532,113.899113" id="Fill-101" fill="#FFFFFF"></path>
                    <path d="M16.8061358,283.491839 C25.4950639,283.491839 32.5330345,276.443143 32.5330345,267.754646 C32.5330345,259.060031 25.4950639,252.017454 16.8061358,252.017454 C8.12332231,252.017454 1.07923703,259.060031 1.07923703,267.754646 C1.07923703,276.443143 8.12332231,283.491839 16.8061358,283.491839" id="Fill-102" fill="#FFFFFF"></path>
                    <path d="M255.95222,415.664065 C264.635033,415.664065 271.679118,408.609251 271.679118,399.926873 C271.679118,391.232257 264.635033,384.183561 255.95222,384.183561 C247.263292,384.183561 240.225321,391.232257 240.225321,399.926873 C240.225321,408.609251 247.263292,415.664065 255.95222,415.664065" id="Fill-103" fill="#FFFFFF"></path>
                    <path d="M335.681849,256.053321 C344.364662,256.053321 351.402633,249.010744 351.402633,240.316129 C351.402633,231.621513 344.364662,224.572818 335.681849,224.572818 C326.99292,224.572818 319.95495,231.621513 319.95495,240.316129 C319.95495,249.010744 326.99292,256.053321 335.681849,256.053321" id="Fill-104" fill="#FFFFFF"></path>
                    <path d="M415.446942,158.402573 C424.129756,158.402573 431.173841,151.353877 431.173841,142.66538 C431.173841,133.970765 424.129756,126.928187 415.446942,126.928187 C406.758014,126.928187 399.726158,133.970765 399.726158,142.66538 C399.726158,151.353877 406.758014,158.402573 415.446942,158.402573" id="Fill-105" fill="#FFFFFF"></path>
                    <path d="M495.182075,283.491839 C503.864888,283.491839 510.896744,276.443143 510.896744,267.754646 C510.896744,259.060031 503.864888,252.017454 495.182075,252.017454 C486.493146,252.017454 479.455176,259.060031 479.455176,267.754646 C479.455176,276.443143 486.493146,283.491839 495.182075,283.491839" id="Fill-106" fill="#FFFFFF"></path>
                    <path d="M353.016291,662.415537 C341.753092,662.415537 332.275373,669.029808 328.294731,679.682394 L251.201131,885.660953 L174.107531,679.676275 C170.120774,669.029808 160.643055,662.415537 149.379857,662.415537 C135.285571,662.415537 123.771671,672.303291 122.493708,685.464527 L92.8376199,897.81873 L92.7520147,899.837887 C92.7520147,906.966126 98.9583919,912.986887 106.314325,912.986887 C113.009875,912.986887 118.665933,908.22657 119.766571,901.667367 L148.994633,689.429419 C149.012977,689.4233 149.025206,689.411063 149.049665,689.398826 L226.210526,895.567063 C229.995499,906.311429 239.656658,912.986887 251.409029,912.986887 C262.55605,912.986887 272.516827,905.98714 276.136704,895.726148 L353.248648,689.349876 C353.328138,689.398826 353.38317,689.441656 353.413744,689.478368 L382.641806,901.667367 C383.730215,908.22657 389.386273,912.986887 396.087937,912.986887 C403.437755,912.986887 409.650247,906.966126 409.650247,899.837887 L409.650247,898.406121 L379.902439,685.464527 C378.63059,672.303291 367.116691,662.415537 353.016291,662.415537" id="Fill-107" fill="#FFFFFF"></path>
                    <path d="M604.529881,831.634412 C604.529881,860.110654 580.487048,884.175342 552.023318,884.175342 L505.613069,884.175342 C485.086164,884.175342 468.9985,868.083267 468.9985,847.536808 C468.9985,827.565503 485.42247,811.314343 505.613069,811.314343 L604.529881,811.314343 L604.529881,831.634412 Z M552.023318,718.482039 L478.01762,718.482039 C470.307037,718.482039 464.033398,724.943343 464.033398,732.891482 C464.033398,740.607112 470.307037,746.878738 478.01762,746.878738 L552.023318,746.878738 C574.47634,746.878738 594.850378,761.808268 601.961725,782.917644 L505.613069,782.917644 C469.775062,782.917644 440.620375,811.901734 440.620375,847.536808 C440.620375,883.398272 469.775062,912.572042 505.613069,912.572042 L552.023318,912.572042 C596.097768,912.572042 633.329917,875.505202 633.329917,831.634412 L633.329917,799.419669 C633.329917,755.548879 596.097768,718.482039 552.023318,718.482039 L552.023318,718.482039 Z" id="Fill-108" fill="#FFFFFF"></path>
                    <path d="M694.177484,661.575445 C686.473016,661.575445 680.199377,667.853189 680.199377,675.568819 L680.199377,898.581726 C680.199377,906.297356 686.473016,912.568982 694.177484,912.568982 C702.120424,912.568982 708.577502,906.297356 708.577502,898.581726 L708.577502,675.568819 C708.577502,667.853189 702.120424,661.575445 694.177484,661.575445" id="Fill-109" fill="#FFFFFF"></path>
                    <path d="M1205.74256,718.483874 L1205.74256,718.483874 L1205.73645,718.483874 L1205.73033,718.483874 L1154.89307,718.483874 C1111.24053,718.483874 1074.95615,754.326983 1074.00838,798.399688 L1074.00838,898.158315 C1074.00838,906.241065 1080.33094,912.567759 1088.4084,912.567759 C1096.11287,912.567759 1102.38651,906.112573 1102.38651,898.158315 L1102.38651,798.387451 C1103.10192,770.461888 1127.14475,746.880574 1154.89307,746.880574 L1205.74256,746.880574 C1213.81391,746.874455 1220.13646,740.541642 1220.13646,732.47113 C1220.13646,724.761619 1213.67939,718.489993 1205.74256,718.483874" id="Fill-110" fill="#FFFFFF"></path>
                    <path d="M776.319345,661.575445 C768.614877,661.575445 762.341238,667.853189 762.341238,675.568819 L762.341238,898.581726 C762.341238,906.297356 768.614877,912.568982 776.319345,912.568982 C784.2684,912.568982 790.719363,906.297356 790.719363,898.581726 L790.719363,675.568819 C790.719363,667.853189 784.2684,661.575445 776.319345,661.575445" id="Fill-111" fill="#FFFFFF"></path>
                    <path d="M1328.3818,801.82369 C1290.28137,796.408676 1267.13739,791.568816 1267.13739,770.129033 C1267.13739,757.750985 1277.58734,747.300314 1289.95729,747.300314 L1377.91052,747.300314 L1377.91052,746.878126 C1385.98187,746.878126 1392.30442,740.551432 1392.30442,732.474801 C1392.30442,724.759172 1385.84123,718.481427 1377.91052,718.481427 L1289.95729,718.481427 C1261.49356,718.481427 1238.33735,741.646672 1238.33735,770.129033 C1238.33735,819.390362 1291.61436,826.06582 1330.51581,830.936273 C1338.66054,831.958089 1346.34666,832.924837 1352.71202,834.173044 C1375.12224,838.535648 1385.10747,846.795839 1385.10747,860.923824 C1385.10747,873.301872 1374.65752,883.758662 1362.29369,883.758662 L1248.27979,883.758662 C1240.20844,883.758662 1233.87977,890.085356 1233.87977,898.168105 C1233.87977,905.877616 1240.33685,912.155361 1248.27979,912.155361 L1248.27979,912.57143 L1362.29369,912.57143 C1390.7513,912.57143 1413.90751,889.406184 1413.90751,860.923824 C1413.90751,813.987585 1366.48223,807.238704 1328.3818,801.82369" id="Fill-112" fill="#FFFFFF"></path>
                    <path d="M1007.24305,819.322445 L870.042367,819.322445 L870.042367,799.418445 C870.042367,770.942203 894.0852,746.877514 922.542815,746.877514 L954.742601,746.877514 C983.194102,746.877514 1007.24305,770.942203 1007.24305,799.418445 L1007.24305,819.322445 Z M954.742601,718.480815 L922.542815,718.480815 C878.700722,718.480815 841.658128,755.553774 841.658128,799.418445 L841.658128,828.2924 C841.658128,875.546808 877.184287,912.570818 922.542815,912.570818 L1000.32126,912.570818 C1008.02573,912.570818 1014.29936,906.109513 1014.29936,898.161375 C1014.29936,890.451863 1008.02573,884.174119 1000.32126,884.174119 L922.542815,884.174119 C902.077057,884.174119 882.877033,871.61251 874.768997,852.920005 L872.48823,847.719144 L1017.04485,847.719144 C1027.2869,847.719144 1035.62729,839.195851 1035.62729,828.70235 L1035.62729,799.418445 C1035.62729,755.553774 998.584694,718.480815 954.742601,718.480815 L954.742601,718.480815 Z" id="Fill-113" fill="#FFFFFF"></path>
                </g>
            </g>
        </g>
    </g>
</svg>