<?xml version="1.0" encoding="UTF-8"?>
<svg width="1415px" height="913px" viewBox="0 0 1415 913" version="1.1" xmlns="http://www.w3.org/2000/svg" xmlns:xlink="http://www.w3.org/1999/xlink">
    <!-- Generator: Sketch 53.2 (72643) - https://sketchapp.com -->
    <title>android-app-icon-purple copy 3</title>
    <desc>Created with Sketch.</desc>
    <defs>
        <path d="M328.382543,679.906432 C332.377335,669.253782 341.853617,662.641988 353.123016,662.641988 C367.223951,662.641988 378.743024,672.528464 380.019769,685.689624 L409.770755,898.600746 L409.770755,900.030937 C409.770755,907.159188 403.557265,913.180745 396.203216,913.180745 C389.5074,913.180745 383.850003,908.424794 382.749165,901.852727 L353.520226,689.702103 C353.486179,689.668051 353.435109,689.622648 353.355667,689.577245 L276.211922,895.921976 C272.591642,906.183027 262.633034,913.180745 251.477124,913.180745 C239.719725,913.180745 230.056187,906.506522 226.265674,895.768741 L149.082208,689.622648 C149.053836,689.633999 149.042487,689.64535 149.025464,689.6567 L119.785176,901.852727 C118.684338,908.424794 113.032615,913.180745 106.331125,913.180745 C98.9770761,913.180745 92.7635858,907.159188 92.7635858,900.030937 L92.8543765,898.010508 L122.520246,685.689624 C123.796991,672.528464 135.31039,662.641988 149.411324,662.641988 C160.680723,662.641988 170.157005,669.253782 174.151797,679.900757 L251.261496,885.859563 L328.382543,679.906432 Z" id="path-1"></path>
        <path d="M478.164544,718.703192 L552.198706,718.703192 C596.283278,718.703192 633.535848,755.768966 633.535848,799.628147 L633.535848,831.835813 C633.535848,875.706345 596.283278,912.760769 552.198706,912.760769 L505.770599,912.760769 C469.919611,912.760769 440.75309,883.595095 440.75309,847.738172 C440.75309,812.108263 469.919611,783.129876 505.770599,783.129876 L602.150629,783.129876 C595.034906,762.023213 574.658062,747.097017 552.198706,747.097017 L478.164544,747.097017 C470.447332,747.097017 464.177098,740.820069 464.177098,733.107255 C464.177098,725.167426 470.447332,718.703192 478.164544,718.703192 Z M469.142215,847.738172 C469.142215,868.277299 485.234872,884.372619 505.770599,884.372619 L552.198706,884.372619 C580.667274,884.372619 604.715467,860.314769 604.715467,831.835813 L604.715467,811.523701 L505.770599,811.523701 C485.575337,811.523701 469.142215,827.772256 469.142215,847.738172 Z" id="path-3"></path>
        <path d="M680.417909,675.791796 C680.417909,668.078982 686.693818,661.80771 694.399681,661.80771 C702.338195,661.80771 708.80136,668.078982 708.80136,675.791796 L708.80136,898.782357 C708.80136,906.495171 702.338195,912.760769 694.399681,912.760769 C686.693818,912.760769 680.417909,906.495171 680.417909,898.782357 L680.417909,675.791796 Z" id="path-5"></path>
        <path d="M1206.13593,718.703192 L1206.14161,718.703192 C1214.08012,718.708867 1220.53761,724.98014 1220.53761,732.687278 C1220.53761,740.75764 1214.21063,747.085666 1206.14161,747.097017 L1155.27043,747.097017 C1127.51684,747.097017 1103.4573,770.678136 1102.74232,798.595231 L1102.748,898.356705 C1102.748,906.296534 1096.47776,912.760769 1088.76055,912.760769 C1080.68585,912.760769 1074.35887,906.438418 1074.35887,898.356705 L1074.35887,798.606582 C1075.3065,754.543089 1111.60577,718.703192 1155.27043,718.703192 L1206.13026,718.703192 L1206.13593,718.703192 Z" id="path-7"></path>
        <path d="M762.583517,675.791796 C762.583517,668.078982 768.859426,661.80771 776.570963,661.80771 C784.515151,661.80771 790.972642,668.078982 790.972642,675.791796 L790.972642,898.782357 C790.972642,906.495171 784.515151,912.760769 776.570963,912.760769 C768.859426,912.760769 762.583517,906.495171 762.583517,898.782357 L762.583517,675.791796 Z" id="path-9"></path>
        <path d="M1290.37838,718.703192 L1378.36027,718.703192 C1386.30446,718.703192 1392.76195,724.98014 1392.76195,732.687278 C1392.76195,740.763315 1386.44064,747.097017 1378.36027,747.097017 L1378.36027,747.516993 L1290.37838,747.516993 C1278.01382,747.516993 1267.56154,757.965331 1267.56154,770.337615 C1267.56154,791.773449 1290.70182,796.620206 1328.82258,802.034499 C1366.94333,807.448792 1414.37581,814.19112 1414.37581,861.126345 C1414.37581,889.599625 1391.21283,912.760769 1362.74426,912.760769 L1248.68841,912.760769 L1248.68841,912.352143 C1240.74422,912.352143 1234.28673,906.069519 1234.28673,898.356705 C1234.28673,890.274993 1240.61371,883.952642 1248.68841,883.952642 L1362.74426,883.952642 C1375.1145,883.952642 1385.57246,873.49863 1385.57246,861.126345 C1385.57246,846.994699 1375.57413,838.742726 1353.16584,834.372699 C1346.79914,833.129795 1339.09895,832.164984 1330.95049,831.14342 C1292.04098,826.268285 1238.7525,819.594062 1238.7525,770.337615 C1238.7525,741.864335 1261.90981,718.703192 1290.37838,718.703192 Z" id="path-11"></path>
        <path d="M922.846171,718.703192 L955.054182,718.703192 C998.906102,718.703192 1035.96574,755.768966 1035.96574,799.628147 L1035.96574,828.907328 C1035.96574,839.395393 1027.62434,847.919783 1017.37634,847.919783 L872.763737,847.919783 L875.050529,853.124088 C883.16495,871.813048 902.367188,884.372619 922.846171,884.372619 L1000.64815,884.372619 C1008.35401,884.372619 1014.62992,890.643891 1014.62992,898.356705 C1014.62992,906.296534 1008.35401,912.760769 1000.64815,912.760769 L922.846171,912.760769 C877.473506,912.760769 841.928937,875.746072 841.928937,828.493027 L841.928937,799.628147 C841.928937,755.768966 878.988576,718.703192 922.846171,718.703192 Z M870.318062,799.628147 L870.318062,819.525958 L1007.57662,819.525958 L1007.57662,799.628147 C1007.57662,771.149191 983.517074,747.097017 955.054182,747.097017 L922.846171,747.097017 C894.37193,747.097017 870.318062,771.149191 870.318062,799.628147 Z" id="path-13"></path>
        <path d="M160.493467,16.5136277 C160.493467,7.84167799 167.524074,0.815582585 176.194589,0.815582585 C184.865103,0.815582585 191.89571,7.84167799 191.89571,16.5136277 C191.89571,25.1912528 184.865103,32.2173482 176.194589,32.2173482 C167.524074,32.2173482 160.493467,25.1912528 160.493467,16.5136277 Z" id="path-15"></path>
        <path d="M80.9040472,98.2671853 C80.9040472,89.5952356 87.9289796,82.5634648 96.6051684,82.5634648 C105.275683,82.5634648 112.30629,89.5952356 112.30629,98.2671853 C112.30629,106.93346 105.275683,113.970906 96.6051684,113.970906 C87.9289796,113.970906 80.9040472,106.93346 80.9040472,98.2671853 Z" id="path-17"></path>
        <path d="M1.30895251,267.483712 C1.30895251,258.806087 8.34523378,251.779992 17.0157481,251.779992 C25.6862625,251.779992 32.7111949,258.806087 32.7111949,267.483712 C32.7111949,276.149987 25.6862625,283.193108 17.0157481,283.193108 C8.34523378,283.193108 1.30895251,276.149987 1.30895251,267.483712 Z" id="path-19"></path>
        <path d="M240.043167,399.356372 C240.043167,390.684423 247.068099,383.658327 255.738614,383.658327 C264.414802,383.658327 271.445409,390.684423 271.445409,399.356372 C271.445409,408.028322 264.414802,415.060093 255.738614,415.060093 C247.068099,415.060093 240.043167,408.028322 240.043167,399.356372 Z" id="path-21"></path>
        <path d="M319.626913,240.105777 C319.626913,231.428152 326.663194,224.402056 335.333708,224.402056 C344.004223,224.402056 351.029155,231.428152 351.029155,240.105777 C351.029155,248.777727 344.004223,255.809497 335.333708,255.809497 C326.663194,255.809497 319.626913,248.777727 319.626913,240.105777 Z" id="path-23"></path>
        <path d="M478.851149,267.483712 C478.851149,258.806087 485.881755,251.779992 494.55227,251.779992 C503.222784,251.779992 510.253391,258.806087 510.253391,267.483712 C510.253391,276.149987 503.222784,283.193108 494.55227,283.193108 C485.881755,283.193108 478.851149,276.149987 478.851149,267.483712 Z" id="path-25"></path>
        <path d="M399.261728,142.6712 C399.261728,133.993575 406.292335,126.96748 414.96285,126.96748 C423.639038,126.96748 430.658296,133.993575 430.658296,142.6712 C430.658296,151.337475 423.639038,158.369245 414.96285,158.369245 C406.292335,158.369245 399.261728,151.337475 399.261728,142.6712 Z" id="path-27"></path>
        <path d="M492.237106,315.412126 C493.014502,315.298619 493.791897,315.24754 494.55227,315.24754 C503.336273,315.24754 510.474693,322.370117 510.474693,331.166925 L510.474693,583.465043 C510.474693,593.016674 502.048179,600.60463 492.237106,599.214167 C484.168081,598.08477 478.635521,590.383307 478.635521,582.239166 L478.635521,332.387127 C478.635521,324.242986 484.168081,316.547198 492.237106,315.412126 Z" id="path-29"></path>
        <path d="M14.7005846,315.412126 C15.4836546,315.298619 16.2553758,315.24754 17.0157481,315.24754 C25.8110997,315.24754 32.9381717,322.370117 32.9381717,331.166925 L32.9381717,797.834733 C32.9381717,807.392039 24.5230063,814.979995 14.7005846,813.589532 C6.63723325,812.460135 1.09899896,804.758672 1.09899896,796.614531 L1.09899896,332.387127 C1.09899896,324.242986 6.63723325,316.547198 14.7005846,315.412126 Z" id="path-31"></path>
        <path d="M333.052591,288.1931 C333.835661,288.079593 334.607382,288.028515 335.36208,288.028515 C344.157432,288.028515 351.284504,295.156767 351.284504,303.947899 L351.284504,487.386878 C351.284504,496.938508 342.875013,504.526464 333.052591,503.141677 C324.98924,502.006605 319.451006,494.310817 319.451006,486.166675 L319.451006,305.173777 C319.451006,297.029635 324.98924,289.328172 333.052591,288.1931 Z" id="path-33"></path>
        <path d="M412.647686,190.593938 C413.430756,190.486106 414.202477,190.429353 414.96285,190.435028 C423.752527,190.435028 430.879599,197.56328 430.879599,206.354412 L430.879599,487.386878 C430.879599,496.938508 422.470108,504.526464 412.647686,503.141677 C404.57866,502.006605 399.040426,494.310817 399.040426,486.166675 L399.040426,207.58029 C399.040426,199.424798 404.57866,191.72901 412.647686,190.593938 Z" id="path-35"></path>
        <path d="M253.468845,447.284786 C254.251915,447.171278 255.023637,447.1202 255.784009,447.1202 C264.568012,447.1202 271.700758,454.248452 271.700758,463.039584 L271.700758,646.59207 C271.700758,656.143701 263.285593,663.731657 253.468845,662.346869 C245.39982,661.211797 239.861585,653.510334 239.861585,645.366193 L239.861585,464.265462 C239.861585,456.115645 245.39982,448.419858 253.468845,447.284786 Z" id="path-37"></path>
        <path d="M173.873751,64.4306903 C174.656821,64.3228585 175.428542,64.2717803 176.18324,64.2717803 C184.978591,64.2717803 192.105663,71.3943568 192.105663,80.1911644 L192.105663,566.989474 C192.105663,576.541105 183.696172,584.134736 173.873751,582.749948 C165.810399,581.609201 160.27784,573.913413 160.27784,565.763596 L160.27784,81.4170422 C160.27784,73.2672255 165.810399,65.5714377 173.873751,64.4306903 Z" id="path-39"></path>
        <path d="M94.2900049,146.195599 C95.0730749,146.082091 95.8447961,146.031013 96.6051684,146.031013 C105.394846,146.031013 112.527592,153.15359 112.527592,161.950397 L112.527592,487.386878 C112.527592,496.938508 104.106752,504.526464 94.2900049,503.141677 C86.2266535,502.006605 80.6827448,494.310817 80.6827448,486.166675 L80.6827448,163.176275 C80.6827448,155.026458 86.2266535,147.324995 94.2900049,146.195599 Z" id="path-41"></path>
    </defs>
    <g id="android-app-icon-purple-copy-3" stroke="none" stroke-width="1" fill="none" fill-rule="evenodd">
        <g id="purple-logo-En">
            <mask id="mask-2" fill="white">
                <use xlink:href="#path-1"></use>
            </mask>
            <use id="Clip-7" fill="#9C4287" xlink:href="#path-1"></use>
            <mask id="mask-4" fill="white">
                <use xlink:href="#path-3"></use>
            </mask>
            <use id="Clip-10" fill="#9C4287" xlink:href="#path-3"></use>
            <mask id="mask-6" fill="white">
                <use xlink:href="#path-5"></use>
            </mask>
            <use id="Clip-13" fill="#9C4287" xlink:href="#path-5"></use>
            <mask id="mask-8" fill="white">
                <use xlink:href="#path-7"></use>
            </mask>
            <use id="Clip-16" fill="#9C4287" xlink:href="#path-7"></use>
            <mask id="mask-10" fill="white">
                <use xlink:href="#path-9"></use>
            </mask>
            <use id="Clip-19" fill="#9C4287" xlink:href="#path-9"></use>
            <mask id="mask-12" fill="white">
                <use xlink:href="#path-11"></use>
            </mask>
            <use id="Clip-22" fill="#9C4287" xlink:href="#path-11"></use>
            <mask id="mask-14" fill="white">
                <use xlink:href="#path-13"></use>
            </mask>
            <use id="Clip-25" fill="#9C4287" xlink:href="#path-13"></use>
            <mask id="mask-16" fill="white">
                <use xlink:href="#path-15"></use>
            </mask>
            <use id="Clip-28" fill="#9C4287" xlink:href="#path-15"></use>
            <mask id="mask-18" fill="white">
                <use xlink:href="#path-17"></use>
            </mask>
            <use id="Clip-31" fill="#9C4287" xlink:href="#path-17"></use>
            <mask id="mask-20" fill="white">
                <use xlink:href="#path-19"></use>
            </mask>
            <use id="Clip-34" fill="#9C4287" xlink:href="#path-19"></use>
            <mask id="mask-22" fill="white">
                <use xlink:href="#path-21"></use>
            </mask>
            <use id="Clip-37" fill="#9C4287" xlink:href="#path-21"></use>
            <mask id="mask-24" fill="white">
                <use xlink:href="#path-23"></use>
            </mask>
            <use id="Clip-40" fill="#9C4287" xlink:href="#path-23"></use>
            <mask id="mask-26" fill="white">
                <use xlink:href="#path-25"></use>
            </mask>
            <use id="Clip-43" fill="#9C4287" xlink:href="#path-25"></use>
            <mask id="mask-28" fill="white">
                <use xlink:href="#path-27"></use>
            </mask>
            <use id="Clip-46" fill="#9C4287" xlink:href="#path-27"></use>
            <mask id="mask-30" fill="white">
                <use xlink:href="#path-29"></use>
            </mask>
            <use id="Clip-49" fill="#9C4287" xlink:href="#path-29"></use>
            <mask id="mask-32" fill="white">
                <use xlink:href="#path-31"></use>
            </mask>
            <use id="Clip-52" fill="#9C4287" xlink:href="#path-31"></use>
            <mask id="mask-34" fill="white">
                <use xlink:href="#path-33"></use>
            </mask>
            <use id="Clip-55" fill="#9C4287" xlink:href="#path-33"></use>
            <mask id="mask-36" fill="white">
                <use xlink:href="#path-35"></use>
            </mask>
            <use id="Clip-58" fill="#9C4287" xlink:href="#path-35"></use>
            <mask id="mask-38" fill="white">
                <use xlink:href="#path-37"></use>
            </mask>
            <use id="Clip-61" fill="#9C4287" xlink:href="#path-37"></use>
            <mask id="mask-40" fill="white">
                <use xlink:href="#path-39"></use>
            </mask>
            <use id="Clip-64" fill="#9C4287" xlink:href="#path-39"></use>
            <mask id="mask-42" fill="white">
                <use xlink:href="#path-41"></use>
            </mask>
            <use id="Clip-67" fill="#9C4287" xlink:href="#path-41"></use>
        </g>
    </g>
</svg>